<?xml version="1.0" encoding="iso-8859-1"?>
<!-- Generator: Adobe Illustrator 19.0.0, SVG Export Plug-In . SVG Version: 6.00 Build 0)  -->
<svg version="1.1" id="Layer_1" xmlns="http://www.w3.org/2000/svg" xmlns:xlink="http://www.w3.org/1999/xlink" x="0px" y="0px"
	 viewBox="0 0 512.001 512.001" style="enable-background:new 0 0 512.001 512.001;" xml:space="preserve">
<g>
	<g>
		<path d="M505.183,123.181L388.82,6.817c-9.087-9.089-23.823-9.089-32.912,0c-9.089,9.087-9.089,23.823,0,32.912l76.636,76.634
			H23.274c-12.853,0-23.273,10.42-23.273,23.273c0,12.853,10.42,23.273,23.273,23.273h409.269l-76.634,76.635
			c-9.089,9.087-9.089,23.824,0,32.912c4.544,4.546,10.501,6.817,16.455,6.817c5.955,0,11.913-2.271,16.455-6.817l116.364-116.364
			C514.272,147.006,514.272,132.27,505.183,123.181z"/>
	</g>
</g>
<g>
	<g>
		<path d="M488.728,349.091H79.459l76.634-76.636c9.089-9.087,9.089-23.824,0-32.912c-9.087-9.089-23.823-9.089-32.912,0
			L6.817,355.907c-9.089,9.087-9.089,23.823,0,32.912L123.18,505.183c4.546,4.546,10.501,6.817,16.457,6.817
			c5.956,0,11.913-2.271,16.455-6.817c9.089-9.087,9.089-23.824,0-32.912l-76.634-76.634h409.27
			c12.853,0,23.273-10.42,23.273-23.273C512.001,359.511,501.581,349.091,488.728,349.091z"/>
	</g>
</g>
<g>
</g>
<g>
</g>
<g>
</g>
<g>
</g>
<g>
</g>
<g>
</g>
<g>
</g>
<g>
</g>
<g>
</g>
<g>
</g>
<g>
</g>
<g>
</g>
<g>
</g>
<g>
</g>
<g>
</g>
</svg>
